<svg width="1600" height="1000" viewBox="0 0 1600 1000" fill="none" xmlns="http://www.w3.org/2000/svg">
<defs>
<linearGradient id="bg" x1="0" y1="0" x2="1600" y2="1000" gradientUnits="userSpaceOnUse">
<stop stop-color="#091423"/>
<stop offset="1" stop-color="#17375A"/>
</linearGradient>
</defs>
<rect width="1600" height="1000" fill="url(#bg)"/>
<rect x="0" y="760" width="1600" height="240" fill="#07111D"/>
<g opacity="0.22">
<circle cx="350" cy="220" r="220" fill="#F58A1F"/>
<circle cx="1260" cy="180" r="160" fill="#1E7DB5"/>
</g>
<g transform="translate(120,110)">
<rect x="0" y="0" width="1360" height="700" rx="40" fill="#0F1E31" fill-opacity="0.52" stroke="#FFFFFF" stroke-opacity="0.12"/>
<g transform="translate(90,90)">
<rect x="0" y="0" width="24" height="500" fill="#1E7DB5"/>
<rect x="170" y="0" width="24" height="500" fill="#1E7DB5"/>
<rect x="340" y="0" width="24" height="500" fill="#1E7DB5"/>
<rect x="510" y="0" width="24" height="500" fill="#1E7DB5"/>
<rect x="680" y="0" width="24" height="500" fill="#1E7DB5"/>
<rect x="850" y="0" width="24" height="500" fill="#1E7DB5"/>
<rect x="1020" y="0" width="24" height="500" fill="#1E7DB5"/>
<rect x="0" y="95" width="1044" height="22" fill="#F58A1F"/>
<rect x="0" y="220" width="1044" height="22" fill="#F58A1F"/>
<rect x="0" y="345" width="1044" height="22" fill="#F58A1F"/>
<g fill="#C8D2DE">
<rect x="34" y="24" width="120" height="54" rx="8"/>
<rect x="204" y="24" width="120" height="54" rx="8"/>
<rect x="374" y="24" width="120" height="54" rx="8"/>
<rect x="544" y="24" width="120" height="54" rx="8"/>
<rect x="714" y="24" width="120" height="54" rx="8"/>
<rect x="884" y="24" width="120" height="54" rx="8"/>
<rect x="34" y="145" width="120" height="54" rx="8" fill="#F2D0A1"/>
<rect x="204" y="145" width="120" height="54" rx="8" fill="#F2D0A1"/>
<rect x="374" y="145" width="120" height="54" rx="8" fill="#F2D0A1"/>
<rect x="544" y="145" width="120" height="54" rx="8" fill="#F2D0A1"/>
<rect x="714" y="145" width="120" height="54" rx="8" fill="#F2D0A1"/>
<rect x="884" y="145" width="120" height="54" rx="8" fill="#F2D0A1"/>
<rect x="34" y="270" width="120" height="54" rx="8"/>
<rect x="204" y="270" width="120" height="54" rx="8"/>
<rect x="374" y="270" width="120" height="54" rx="8"/>
<rect x="544" y="270" width="120" height="54" rx="8"/>
<rect x="714" y="270" width="120" height="54" rx="8"/>
<rect x="884" y="270" width="120" height="54" rx="8"/>
</g>
</g>
</g>
<text x="120" y="920" fill="white" fill-opacity="0.92" font-size="44" font-family="Arial, Helvetica, sans-serif" font-weight="700">LOGISTICS STORAGE SYSTEMS</text>
</svg>