<svg xmlns="http://www.w3.org/2000/svg" width="420" height="120" viewBox="0 0 420 120">
    <defs>
      <linearGradient id="g1" x1="0" y1="0" x2="1" y2="1">
        <stop offset="0%" stop-color="#1e62c7"/>
        <stop offset="100%" stop-color="#0f3f8b"/>
      </linearGradient>
      <linearGradient id="g2" x1="0" y1="0" x2="1" y2="0">
        <stop offset="0%" stop-color="#ffb600"/>
        <stop offset="100%" stop-color="#ff8a00"/>
      </linearGradient>
      <linearGradient id="steel" x1="0" y1="0" x2="1" y2="1">
        <stop offset="0%" stop-color="#5f8df0"/>
        <stop offset="100%" stop-color="#2754b7"/>
      </linearGradient>
      <linearGradient id="box" x1="0" y1="0" x2="1" y2="1">
        <stop offset="0%" stop-color="#ead2a7"/>
        <stop offset="100%" stop-color="#c79a58"/>
      </linearGradient>
      <pattern id="dots" width="16" height="16" patternUnits="userSpaceOnUse">
        <circle cx="2" cy="2" r="1" fill="#dbe3ef"/>
      </pattern>
      <filter id="blur"><feGaussianBlur stdDeviation="18"/></filter>
    </defs>
    <rect width="100%" height="100%" fill="#fff"/>
    
<rect x="0" y="0" width="360" height="120" rx="8" fill="white"/>
<g transform="translate(18,16)">
  <path d="M18 40 L52 12 H82 L50 40 L82 68 H52 Z" fill="url(#steel)"/>
  <path d="M52 12 H84 L50 40 H18 Z" fill="url(#g2)"/>
  <path d="M18 68 H50 L84 40 H52 Z" fill="#1f72d6" opacity="0.95"/>
  <rect x="4" y="6" width="16" height="16" rx="4" fill="#1f72d6"/>
  <rect x="4" y="64" width="16" height="16" rx="4" fill="#ffb600"/>
  <text x="108" y="42" font-size="42" font-weight="700" font-family="Arial, Microsoft YaHei, sans-serif" fill="#1f72d6">倍力特</text>
  <text x="108" y="68" font-size="18" font-family="Arial, Microsoft YaHei, sans-serif" fill="#f39b00">www.bltvip.com</text>
</g>
    </svg>