<svg xmlns="http://www.w3.org/2000/svg" width="680" height="460" viewBox="0 0 680 460">
    <defs>
      <linearGradient id="g1" x1="0" y1="0" x2="1" y2="1">
        <stop offset="0%" stop-color="#1e62c7"/>
        <stop offset="100%" stop-color="#0f3f8b"/>
      </linearGradient>
      <linearGradient id="g2" x1="0" y1="0" x2="1" y2="0">
        <stop offset="0%" stop-color="#ffb600"/>
        <stop offset="100%" stop-color="#ff8a00"/>
      </linearGradient>
      <linearGradient id="steel" x1="0" y1="0" x2="1" y2="1">
        <stop offset="0%" stop-color="#5f8df0"/>
        <stop offset="100%" stop-color="#2754b7"/>
      </linearGradient>
      <linearGradient id="box" x1="0" y1="0" x2="1" y2="1">
        <stop offset="0%" stop-color="#ead2a7"/>
        <stop offset="100%" stop-color="#c79a58"/>
      </linearGradient>
      <pattern id="dots" width="16" height="16" patternUnits="userSpaceOnUse">
        <circle cx="2" cy="2" r="1" fill="#dbe3ef"/>
      </pattern>
      <filter id="blur"><feGaussianBlur stdDeviation="18"/></filter>
    </defs>
    <rect width="100%" height="100%" fill="#fff"/>
    
    <rect width="100%" height="100%" fill="#f7fafc"/>
    <rect x="60" y="70" width="560" height="320" rx="18" fill="#e6edf7"/>
    <path d="M100 340 C180 240, 260 300, 340 210 S500 140, 560 120" stroke="#296fd6" stroke-width="6" fill="none" opacity="0.5"/>
    <path d="M110 140 L300 160 L500 120" stroke="#f18b00" stroke-width="5" fill="none" opacity="0.7"/>
    <circle cx="180" cy="250" r="12" fill="#1f72d6"/>
    <circle cx="360" cy="200" r="12" fill="#f18b00"/>
    <circle cx="500" cy="130" r="12" fill="#0f7b64"/>
    <text x="120" y="110" font-size="28" font-family="Arial, Microsoft YaHei, sans-serif" fill="#6883a6">武汉 · 倍力特 · 联系地图</text>
    
    </svg>