<svg xmlns="http://www.w3.org/2000/svg" width="600" height="520" viewBox="0 0 600 520">
    <defs>
      <linearGradient id="g1" x1="0" y1="0" x2="1" y2="1">
        <stop offset="0%" stop-color="#1e62c7"/>
        <stop offset="100%" stop-color="#0f3f8b"/>
      </linearGradient>
      <linearGradient id="g2" x1="0" y1="0" x2="1" y2="0">
        <stop offset="0%" stop-color="#ffb600"/>
        <stop offset="100%" stop-color="#ff8a00"/>
      </linearGradient>
      <linearGradient id="steel" x1="0" y1="0" x2="1" y2="1">
        <stop offset="0%" stop-color="#5f8df0"/>
        <stop offset="100%" stop-color="#2754b7"/>
      </linearGradient>
      <linearGradient id="box" x1="0" y1="0" x2="1" y2="1">
        <stop offset="0%" stop-color="#ead2a7"/>
        <stop offset="100%" stop-color="#c79a58"/>
      </linearGradient>
      <pattern id="dots" width="16" height="16" patternUnits="userSpaceOnUse">
        <circle cx="2" cy="2" r="1" fill="#dbe3ef"/>
      </pattern>
      <filter id="blur"><feGaussianBlur stdDeviation="18"/></filter>
    </defs>
    <rect width="100%" height="100%" fill="#fff"/>
    
    <rect width="100%" height="100%" fill="#f5f7fb"/>
    <rect x="0" y="0" width="600" height="520" fill="url(#g1)" opacity="0.09"/>
    <rect x="0" y="380" width="600" height="140" fill="#dce7fa"/>
    <g opacity="0.18">
      <path d="M0 430 L200 300 L300 300 L0 520 Z" fill="#ffffff"/>
    </g>
    <g transform="translate(50,40)">
      
        <rect x="70" y="130" width="410" height="240" fill="#e4edfb"/>
        <rect x="70" y="320" width="410" height="24" fill="#f18b00"/>
        <rect x="90" y="90" width="22" height="400" fill="#296fd6"/>
        <rect x="440" y="90" width="22" height="400" fill="#296fd6"/>
        <rect x="130" y="170" width="190" height="120" fill="#fff2d7"/>
        <rect x="330" y="170" width="110" height="120" fill="#d9e5ff"/>
        
      <rect x="0" y="446" width="520" height="30" fill="#1f72d6" opacity="0.14"/>
      <circle cx="500" cy="60" r="56" fill="#f18b00" opacity="0.14"/>
      <circle cx="70" cy="430" r="42" fill="#1f72d6" opacity="0.14"/>
    </g>
    
    </svg>