<svg xmlns="http://www.w3.org/2000/svg" width="640" height="420" viewBox="0 0 640 420">
    <defs>
      <linearGradient id="g1" x1="0" y1="0" x2="1" y2="1">
        <stop offset="0%" stop-color="#1e62c7"/>
        <stop offset="100%" stop-color="#0f3f8b"/>
      </linearGradient>
      <linearGradient id="g2" x1="0" y1="0" x2="1" y2="0">
        <stop offset="0%" stop-color="#ffb600"/>
        <stop offset="100%" stop-color="#ff8a00"/>
      </linearGradient>
      <linearGradient id="steel" x1="0" y1="0" x2="1" y2="1">
        <stop offset="0%" stop-color="#5f8df0"/>
        <stop offset="100%" stop-color="#2754b7"/>
      </linearGradient>
      <linearGradient id="box" x1="0" y1="0" x2="1" y2="1">
        <stop offset="0%" stop-color="#ead2a7"/>
        <stop offset="100%" stop-color="#c79a58"/>
      </linearGradient>
      <pattern id="dots" width="16" height="16" patternUnits="userSpaceOnUse">
        <circle cx="2" cy="2" r="1" fill="#dbe3ef"/>
      </pattern>
      <filter id="blur"><feGaussianBlur stdDeviation="18"/></filter>
    </defs>
    <rect width="100%" height="100%" fill="#fff"/>
    
    <rect width="100%" height="100%" fill="#eef3fb"/>
    <rect x="0" y="0" width="640" height="420" fill="#dfe8f6"/>
    <g transform="translate(20,40)">
      <rect x="40" y="60" width="50" height="250" fill="#296fd6"/>
      <rect x="210" y="60" width="50" height="250" fill="#296fd6"/>
      <rect x="380" y="60" width="50" height="250" fill="#296fd6"/>
      <rect x="40" y="90" width="390" height="20" fill="#1f72d6"/>
      <rect x="40" y="170" width="390" height="20" fill="#1f72d6"/>
      <rect x="40" y="250" width="390" height="20" fill="#1f72d6"/>
      <rect x="100" y="120" width="100" height="50" fill="#fff2d7"/>
      <rect x="270" y="120" width="100" height="50" fill="#fff2d7"/>
      <rect x="100" y="200" width="100" height="50" fill="#fff2d7"/>
      <rect x="270" y="200" width="100" height="50" fill="#fff2d7"/>
      <rect x="470" y="40" width="100" height="300" rx="8" fill="#ffffff" opacity="0.85"/>
    </g>
    
    </svg>