<svg xmlns="http://www.w3.org/2000/svg" width="760" height="380" viewBox="0 0 760 380">
    <defs>
      <linearGradient id="g1" x1="0" y1="0" x2="1" y2="1">
        <stop offset="0%" stop-color="#1e62c7"/>
        <stop offset="100%" stop-color="#0f3f8b"/>
      </linearGradient>
      <linearGradient id="g2" x1="0" y1="0" x2="1" y2="0">
        <stop offset="0%" stop-color="#ffb600"/>
        <stop offset="100%" stop-color="#ff8a00"/>
      </linearGradient>
      <linearGradient id="steel" x1="0" y1="0" x2="1" y2="1">
        <stop offset="0%" stop-color="#5f8df0"/>
        <stop offset="100%" stop-color="#2754b7"/>
      </linearGradient>
      <linearGradient id="box" x1="0" y1="0" x2="1" y2="1">
        <stop offset="0%" stop-color="#ead2a7"/>
        <stop offset="100%" stop-color="#c79a58"/>
      </linearGradient>
      <pattern id="dots" width="16" height="16" patternUnits="userSpaceOnUse">
        <circle cx="2" cy="2" r="1" fill="#dbe3ef"/>
      </pattern>
      <filter id="blur"><feGaussianBlur stdDeviation="18"/></filter>
    </defs>
    <rect width="100%" height="100%" fill="#fff"/>
    
    <rect width="100%" height="100%" fill="#f4f7fb"/>
    <rect x="0" y="0" width="760" height="380" fill="#dde6f5"/>
    <rect x="0" y="0" width="760" height="96" fill="#f18b00" opacity="0.16"/>
    <g transform="translate(40,28)">
      <rect x="0" y="100" width="660" height="140" rx="8" fill="#ffffff" opacity="0.86"/>
      <rect x="40" y="20" width="280" height="70" fill="#cfdcf2"/>
      <rect x="340" y="20" width="220" height="70" fill="#d8e2f4"/>
      <rect x="200" y="110" width="340" height="10" rx="5" fill="#f18b00" opacity="0.78"/>
      <rect x="200" y="138" width="240" height="10" rx="5" fill="#c7d3e7"/>
      <rect x="200" y="166" width="290" height="10" rx="5" fill="#c7d3e7"/>
      <circle cx="98" cy="168" r="56" fill="#f18b00" opacity="0.18"/>
    </g>
    
    </svg>